<svg width="960" height="560" viewBox="79 121 686 318" fill="none" xmlns="http://www.w3.org/2000/svg">
<path d="M468.505 362.873L457.658 341.399L446.812 362.873H437.797L422.406 309.812H429.955L443.513 354.004L457.658 325.788L471.877 354.004L485.435 309.812H492.911L477.52 362.873H468.505Z" fill="white"/>
<path d="M540.978 362.659H533.503L527.566 349.761H505.213L499.203 362.659H491.727L516.352 309.672L540.978 362.659ZM524.415 342.944L516.353 325.721L508.365 342.944H524.415Z" fill="white"/>
<path d="M587.378 362.802H578.584L565.318 343.528H555.717V362.802H548.461V343.528V309.742H568.029C577.044 309.742 584.225 317.291 584.225 326.598C584.225 334 579.754 340.23 573.525 342.575L587.378 362.802ZM567.37 336.345C572.721 336.345 577.118 332.021 577.118 326.598C577.118 321.322 572.721 316.997 567.37 316.997H555.718V336.345H567.37Z" fill="white"/>
<path d="M603.398 349.978C604.278 352.763 606.183 354.888 608.968 355.988C612.998 357.454 618.862 356.134 620.84 352.03C621.427 350.857 621.793 349.539 621.793 348.219C621.793 344.921 619.522 341.916 616.59 340.67C614.318 339.644 611.9 339.497 609.481 339.204C604.351 338.545 598.122 336.053 595.923 330.923C593.87 326.599 593.87 321.396 595.923 316.998C598.341 311.647 604.497 308.203 611.386 308.203C616.59 308.203 621.793 310.182 625.164 314.286C626.117 315.312 626.85 316.557 627.363 317.73C627.949 318.903 628.535 320.369 628.756 322.054H620.254C620.108 321.468 619.888 320.954 619.595 320.368C618.715 318.389 616.81 316.85 614.685 316.044C610.8 314.578 605.377 315.751 603.105 319.488C600.466 323.739 602.592 329.383 607.063 331.288C609.042 332.167 611.386 332.461 613.585 332.681C617.176 333.047 620.84 334.22 623.845 336.345C629.708 340.596 630.442 349.243 627.73 354.96C625.238 360.31 619.155 363.828 612.193 363.828C609.921 363.828 607.503 363.388 605.451 362.509C601.347 360.97 598.122 358.112 596.29 354.228C595.703 353.055 595.19 351.663 594.971 349.977H603.398V349.978Z" fill="white"/>
<path d="M682.939 362.659H675.464L669.527 349.761H647.174L641.164 362.659H633.688L658.312 309.672L682.939 362.659ZM666.377 342.944L658.315 325.721L650.327 342.944H666.377Z" fill="white"/>
<path d="M727.779 362.873L716.932 341.399L706.086 362.873H697.071L681.68 309.812H689.229L702.787 354.004L716.932 325.788L731.151 354.004L744.709 309.812H752.185L736.794 362.873H727.779Z" fill="white"/>
<path d="M475.021 262.935C469.231 275.388 453.065 279.429 440.94 274.841C434.604 272.438 429.798 268.069 426.848 261.952C425.537 258.893 424.445 255.725 424.663 252.449H441.157C441.157 256.381 444.106 259.659 447.602 260.969C452.627 262.936 458.744 260.969 461.257 256.054C462.677 253.432 462.24 250.264 460.602 247.861C457.871 243.601 452.518 243.054 447.931 242.618C442.688 242.072 437.226 240.215 432.638 237.046C423.68 230.602 421.933 217.603 426.411 208.208C432.201 195.756 448.367 191.714 460.492 196.302C466.827 198.595 471.525 202.965 474.584 209.191C475.895 211.922 476.987 215.308 476.659 218.694H460.274C460.274 214.653 457.324 211.376 453.719 210.174C450.005 208.645 445.418 209.3 442.468 212.031C439.191 214.981 438.427 219.677 440.83 223.282C443.561 227.433 448.914 228.089 453.392 228.416C458.745 228.963 464.206 230.819 468.794 233.988C477.752 240.433 479.5 253.54 475.021 262.935Z" fill="white"/>
<path d="M544.536 210.396H523.126V274.954H508.707V210.396H487.406V196.195H544.536V210.396Z" fill="white"/>
<path d="M584.451 196.086L545.781 275.064H560.965L584.451 227.124L607.936 275.064H623.12L584.451 196.086Z" fill="white"/>
<path d="M694.17 274.954H676.474L662.492 254.418L658.123 248.191L658.014 247.972H647.419V274.953H633.109V195.758H662.056C676.475 195.758 688.272 207.555 688.272 221.974C688.272 232.242 682.374 241.09 673.635 245.35H673.744L694.17 274.954ZM673.634 221.976C673.634 215.749 668.828 210.725 662.82 210.397C662.601 210.397 647.418 210.397 647.418 210.397V233.664C647.418 233.664 662.602 233.664 662.82 233.664C668.828 233.227 673.634 228.093 673.634 221.976Z" fill="white"/>
<path d="M760.521 210.396H739.11V274.954H724.692V210.396H703.391V196.195H760.522V210.396H760.521Z" fill="white"/>
<path d="M183.811 178.664C128.497 178.664 83.6562 223.505 83.6562 278.819C83.6562 334.133 128.497 378.975 183.811 378.975C239.125 378.975 283.967 334.134 283.967 278.819C283.967 223.504 239.125 178.664 183.811 178.664ZM222.494 324.395L183.81 241.075L145.127 324.395H128.265L183.81 204.87L239.357 324.395H222.494Z" fill="white"/>
<path d="M361.086 125.562H353.844V434.243H361.086V125.562Z" fill="white"/>
</svg>
